<?xml version="1.0" encoding="UTF-8" standalone="no"?>
<svg
   width="236.91718"
   height="179.72289"
   version="1.1"
   id="svg141"
   sodipodi:docname="illustration-woman-online-mobile.svg"
   inkscape:version="1.1 (ce6663b3b7, 2021-05-25)"
   xmlns:inkscape="http://www.inkscape.org/namespaces/inkscape"
   xmlns:sodipodi="http://sodipodi.sourceforge.net/DTD/sodipodi-0.dtd"
   xmlns:xlink="http://www.w3.org/1999/xlink"
   xmlns="http://www.w3.org/2000/svg"
   xmlns:svg="http://www.w3.org/2000/svg">
  <sodipodi:namedview
     id="namedview143"
     pagecolor="#ffffff"
     bordercolor="#666666"
     borderopacity="1.0"
     inkscape:pageshadow="2"
     inkscape:pageopacity="0.0"
     inkscape:pagecheckerboard="0"
     showgrid="false"
     fit-margin-left="-39"
     fit-margin-top="0"
     fit-margin-right="2.7755576e-17"
     fit-margin-bottom="-25.7"
     inkscape:zoom="2.7142857"
     inkscape:cx="294.55263"
     inkscape:cy="127.28947"
     inkscape:window-width="1294"
     inkscape:window-height="704"
     inkscape:window-x="72"
     inkscape:window-y="27"
     inkscape:window-maximized="1"
     inkscape:current-layer="svg141" />
  <defs
     id="defs43">
    <linearGradient
       x1="110.71691"
       y1="124.42996"
       x2="101.84547"
       y2="132.55011"
       id="a"
       gradientTransform="scale(1.2166458,0.82193188)"
       gradientUnits="userSpaceOnUse">
      <stop
         stop-color="#78B46A"
         offset="0%"
         id="stop2" />
      <stop
         stop-color="#7F3500"
         offset="3%"
         id="stop4" />
      <stop
         stop-color="#FFF"
         offset="100%"
         id="stop6" />
    </linearGradient>
    <linearGradient
       x1="83.578209"
       y1="186.98248"
       x2="66.073013"
       y2="198.30363"
       id="b"
       gradientTransform="scale(1.3019226,0.76809484)"
       gradientUnits="userSpaceOnUse">
      <stop
         stop-color="#78B46A"
         offset="0%"
         id="stop9" />
      <stop
         stop-color="#7F3500"
         offset="3%"
         id="stop11" />
      <stop
         stop-color="#FFF"
         offset="100%"
         id="stop13" />
    </linearGradient>
    <linearGradient
       x1="63.822117"
       y1="91.687958"
       x2="51.015926"
       y2="101.35754"
       id="c"
       gradientTransform="scale(1.2050263,0.82985743)"
       gradientUnits="userSpaceOnUse">
      <stop
         stop-color="#78B46A"
         offset="0%"
         id="stop16" />
      <stop
         stop-color="#7F3500"
         offset="3%"
         id="stop18" />
      <stop
         stop-color="#FFF"
         offset="100%"
         id="stop20" />
    </linearGradient>
    <linearGradient
       x1="131.51881"
       y1="104.1179"
       x2="125.10018"
       y2="101.60992"
       id="d"
       gradientTransform="scale(1.365949,0.73209174)"
       gradientUnits="userSpaceOnUse">
      <stop
         stop-color="#FFF"
         stop-opacity="0"
         offset="0%"
         id="stop23" />
      <stop
         stop-color="#DC841E"
         offset="99%"
         id="stop25" />
    </linearGradient>
    <linearGradient
       x1="40.875275"
       y1="143.46379"
       x2="23.158665"
       y2="155.20782"
       id="e"
       gradientTransform="scale(1.2860127,0.77759731)"
       gradientUnits="userSpaceOnUse">
      <stop
         stop-color="#78B46A"
         offset="0%"
         id="stop28" />
      <stop
         stop-color="#7F3500"
         offset="3%"
         id="stop30" />
      <stop
         stop-color="#FFF"
         offset="100%"
         id="stop32" />
    </linearGradient>
    <filter
       x="-1.3429428"
       y="-1.4653088"
       width="3.6858857"
       height="4.541163"
       filterUnits="objectBoundingBox"
       id="f">
      <feOffset
         dy="25"
         in="SourceAlpha"
         result="shadowOffsetOuter1"
         id="feOffset35" />
      <feGaussianBlur
         stdDeviation="25"
         in="shadowOffsetOuter1"
         result="shadowBlurOuter1"
         id="feGaussianBlur37" />
      <feColorMatrix
         values="0 0 0 0 0.209139076 0 0 0 0 0.0691446444 0 0 0 0 0.478091033 0 0 0 0.497159091 0"
         in="shadowBlurOuter1"
         id="feColorMatrix39" />
    </filter>
    <path
       id="g"
       d="M 0,13.878 V 40.813 L 20.984,52.83 44.678,38.817 V 11.883" />
  </defs>
  <g
     fill="none"
     fill-rule="evenodd"
     id="g139"
     transform="translate(-29,-0.40711827)">
    <g
       transform="translate(29)"
       fill-rule="nonzero"
       id="g125">
      <path
         d="M 114.994,178.096 4.676,112.92 c -3.512,-1.974 -6.523,-5.209 -3.1,-7.331 L 112.286,41.8 c 1.66,-1.03 4.181,-1.705 5.873,-0.72 l 115.786,67.19 c 3.512,2.038 4.142,7.717 0.643,9.774 l -105.056,59.95 a 14.67,14.67 0 0 1 -14.538,0.102 z"
         fill="#5b36a0"
         id="path45" />
      <path
         d="M 114.994,175.088 4.676,109.91 c -3.512,-1.975 -6.523,-5.21 -3.1,-7.332 L 112.286,38.79 c 1.66,-1.029 4.181,-1.704 5.873,-0.72 l 115.786,67.19 c 3.512,2.039 4.142,7.717 0.643,9.775 l -105.056,59.949 a 14.67,14.67 0 0 1 -14.538,0.103 z"
         fill="#6862e6"
         id="path47" />
      <path
         d="m 124.09,89.094 -21.768,12.418 c 0,0 33.533,20.457 40.39,23.338 l 12.537,-18.007"
         fill="url(#a)"
         opacity="0.25"
         style="mix-blend-mode:multiply;fill:url(#a)"
         id="path49" />
      <path
         d="M 116.57,148.67 94.796,136.277 73.022,148.695 c 0,0 11.34,6.92 22.18,13.274 6.882,-4.868 13.771,-9.788 21.368,-13.3 z"
         fill="url(#b)"
         opacity="0.25"
         style="mix-blend-mode:multiply;fill:url(#b)"
         id="path51" />
      <path
         d="M 69.658,72.142 55.847,80.02 c 0,0 1.17,7.222 8.028,10.103 L 81.957,78.547"
         fill="url(#c)"
         opacity="0.46"
         style="mix-blend-mode:multiply;fill:url(#c)"
         id="path53" />
      <ellipse
         fill="#68e1fd"
         cx="76.417999"
         cy="74.154999"
         rx="8.3299999"
         ry="5.8649998"
         id="ellipse55" />
      <ellipse
         fill="#974c26"
         cx="76.412003"
         cy="70.695"
         rx="6.2399998"
         ry="2.553"
         id="ellipse57" />
      <path
         d="m 76.187,66.438 c 0,-1.151 -0.039,-2.303 -0.129,-3.454 -0.026,-0.3 -0.054,-0.598 -0.084,-0.894 L 75.91,61.505 c 0,-0.173 -0.09,-0.643 -0.09,-0.598 -0.039,-0.236 -0.08,-0.47 -0.122,-0.7 a 27.482,27.482 0 0 0 -4.451,-10.888 15.913,15.913 0 0 0 -1.242,6.373 c 0,0.643 0.051,1.286 0.103,1.89 v 0.38 a 25.153,25.153 0 0 0 1.158,4.38 21.007,21.007 0 0 0 1.344,3.009 41.327,41.327 0 0 0 1.846,3.183 c 0.515,0.81 1.004,1.53 1.5,2.219 0.154,-1.434 0.224,-2.875 0.23,-4.315 z M 72.913,53.492 a 1.035,1.035 0 0 0 0,-0.45 c 0.158,0.163 0.315,0.33 0.47,0.502 a 1.428,1.428 0 0 0 -0.477,-0.052 z"
         fill="#999a1c"
         id="path59" />
      <path
         d="m 78.329,67.325 c 0.643,-0.97 1.21,-1.93 1.756,-2.977 0.141,-0.266 0.279,-0.532 0.412,-0.798 l 0.263,-0.534 0.251,-0.553 0.277,-0.643 a 27.48,27.48 0 0 0 2.142,-11.575 15.918,15.918 0 0 0 -4.503,4.694 23.024,23.024 0 0 0 -0.933,1.647 l -0.128,0.237 -0.033,0.103 c -0.122,0.29 -0.244,0.58 -0.36,0.875 a 25.153,25.153 0 0 0 -1.035,3.44 21.005,21.005 0 0 0 -0.496,3.261 38.863,38.863 0 0 0 -0.167,3.672 c 0,0.958 0,1.833 0.058,2.675 0.855,-1.138 1.717,-2.308 2.496,-3.524 z m 4.245,-12.662 c 0.101,-0.113 0.176,-0.247 0.219,-0.393 0.047,0.223 0.088,0.438 0.122,0.644 -0.1,-0.1 -0.215,-0.185 -0.34,-0.251 z"
         fill="#999a1c"
         id="path61" />
      <path
         d="m 78.284,70.193 c 0.647,-0.321 1.29,-0.668 1.93,-1.041 l 0.482,-0.296 0.315,-0.2 0.309,-0.218 0.36,-0.264 a 17.288,17.288 0 0 0 4.889,-5.55 10.017,10.017 0 0 0 -3.937,1.087 c -0.354,0.18 -0.695,0.38 -1.036,0.585 l -0.147,0.09 -0.052,0.045 -0.476,0.354 c -0.593,0.467 -1.152,0.977 -1.672,1.524 -0.481,0.498 -0.922,1.034 -1.32,1.601 a 41.869,41.869 0 0 0 -1.286,1.93 c -0.308,0.514 -0.585,0.996 -0.83,1.466 0.83,-0.347 1.66,-0.708 2.47,-1.113 z m 6.38,-5.466 a 0.643,0.643 0 0 0 0.245,-0.141 6.569,6.569 0 0 1 -0.154,0.405 0.9,0.9 0 0 0 -0.09,-0.257 v -0.007 z m -8.477,1.711 c 0,-1.151 -0.039,-2.303 -0.129,-3.454 -0.026,-0.3 -0.054,-0.598 -0.084,-0.894 L 75.91,61.505 c 0,-0.173 -0.09,-0.643 -0.09,-0.598 -0.039,-0.236 -0.08,-0.47 -0.122,-0.7 a 27.482,27.482 0 0 0 -4.451,-10.888 15.913,15.913 0 0 0 -1.242,6.373 c 0,0.643 0.051,1.286 0.103,1.89 v 0.38 a 25.153,25.153 0 0 0 1.158,4.38 21.007,21.007 0 0 0 1.344,3.009 41.327,41.327 0 0 0 1.846,3.183 c 0.515,0.81 1.004,1.53 1.5,2.219 0.154,-1.434 0.224,-2.875 0.23,-4.315 z M 72.913,53.492 a 1.035,1.035 0 0 0 0,-0.45 c 0.158,0.163 0.315,0.33 0.47,0.502 a 1.428,1.428 0 0 0 -0.477,-0.052 z"
         fill="#999a1c"
         id="path63" />
      <path
         d="m 78.329,67.325 c 0.643,-0.97 1.21,-1.93 1.756,-2.977 0.141,-0.266 0.279,-0.532 0.412,-0.798 l 0.263,-0.534 0.251,-0.553 0.277,-0.643 a 27.48,27.48 0 0 0 2.142,-11.575 15.918,15.918 0 0 0 -4.503,4.694 23.024,23.024 0 0 0 -0.933,1.647 l -0.128,0.237 -0.033,0.103 c -0.122,0.29 -0.244,0.58 -0.36,0.875 a 25.153,25.153 0 0 0 -1.035,3.44 21.005,21.005 0 0 0 -0.496,3.261 38.863,38.863 0 0 0 -0.167,3.672 c 0,0.958 0,1.833 0.058,2.675 0.855,-1.138 1.717,-2.308 2.496,-3.524 z m 4.245,-12.662 c 0.101,-0.113 0.176,-0.247 0.219,-0.393 0.047,0.223 0.088,0.438 0.122,0.644 -0.1,-0.1 -0.215,-0.185 -0.34,-0.251 z"
         fill="#999a1c"
         id="path65" />
      <path
         d="m 78.284,70.193 c 0.647,-0.321 1.29,-0.668 1.93,-1.041 l 0.482,-0.296 0.315,-0.2 0.309,-0.218 0.36,-0.264 a 17.288,17.288 0 0 0 4.889,-5.55 10.017,10.017 0 0 0 -3.937,1.087 c -0.354,0.18 -0.695,0.38 -1.036,0.585 l -0.147,0.09 -0.052,0.045 -0.476,0.354 c -0.593,0.467 -1.152,0.977 -1.672,1.524 -0.481,0.498 -0.922,1.034 -1.32,1.601 a 41.869,41.869 0 0 0 -1.286,1.93 c -0.308,0.514 -0.585,0.996 -0.83,1.466 0.83,-0.347 1.66,-0.708 2.47,-1.113 z m 6.38,-5.466 a 0.643,0.643 0 0 0 0.245,-0.141 6.569,6.569 0 0 1 -0.154,0.405 0.9,0.9 0 0 0 -0.09,-0.257 v -0.007 z"
         fill="#999a1c"
         id="path67" />
      <path
         d="m 132.735,84.245 -12.048,5.788 a 2.772,2.772 0 0 0 -0.193,4.894 l 28.554,16.656 a 2.773,2.773 0 0 0 3.731,-0.894 l 6.94,-10.791"
         fill="#a1482d"
         id="path69" />
      <path
         d="M 198.264,56.328 102.194,0.984 A 4.336,4.336 0 0 0 95.697,4.74 v 57.575 c 0,1.287 0.686,2.476 1.8,3.12 l 102.42,59.106 a 2.323,2.323 0 0 0 3.486,-2.013 V 65.19 a 10.225,10.225 0 0 0 -5.14,-8.862 z"
         fill="#f47b56"
         id="path71" />
      <path
         d="m 102.2,5.338 93.169,53.588 a 6.533,6.533 0 0 1 3.274,5.66 v 43.157 a 2.36,2.36 0 0 1 -3.531,2.045 L 100.096,55.306 a 2.328,2.328 0 0 1 -1.17,-2.02 V 7.235 A 2.186,2.186 0 0 1 102.2,5.338 Z"
         fill="#ffffff"
         id="path73" />
      <ellipse
         fill="#ab643c"
         transform="rotate(-10.9,140.964,84.467)"
         cx="140.964"
         cy="84.467003"
         rx="2.026"
         ry="2.3150001"
         id="ellipse75" />
      <path
         fill="url(#d)"
         opacity="0.32"
         d="M 127.242,63.891 170.539,89.898 191.928,77.467 153.712,55.229"
         id="path77"
         style="fill:url(#d)" />
      <path
         d="M 180.748,58.714 133.938,30.18 a 1.621,1.621 0 0 0 -2.431,1.46 v 16.257 a 1.704,1.704 0 0 0 0.817,1.467 l 46.803,27.93 a 1.615,1.615 0 0 0 2.412,-1.41 l 0.244,-15.157 a 2.276,2.276 0 0 0 -1.035,-2.013 z"
         fill="#e2ac00"
         id="path79" />
      <path
         d="m 169.549,67.08 c 1.679,2.348 4.631,3.004 6.587,1.473 1.955,-1.53 2.18,-4.675 0.501,-7.016 -1.679,-2.34 -4.631,-3.003 -6.587,-1.472 -1.955,1.53 -2.18,4.669 -0.501,7.016 z"
         fill="#ffffff"
         id="path81" />
      <path
         d="M 164.956,55.814 145.864,44.322 a 0.727,0.727 0 0 0 -0.733,1.247 l 19.092,11.492 a 0.727,0.727 0 0 0 0.733,-1.247 z m -0.785,4.669 -26.315,-15.84 a 0.727,0.727 0 0 0 -0.702,1.248 l 26.284,15.846 a 0.727,0.727 0 0 0 0.733,-1.248 z"
         fill="#f2f2f2"
         id="path83" />
      <path
         d="M 171.408,61.865 124.624,33.338 a 1.621,1.621 0 0 0 -2.432,1.46 v 16.25 c -0.007,0.6 0.3,1.159 0.81,1.473 l 46.804,27.93 a 1.615,1.615 0 0 0 2.419,-1.44 l 0.244,-15.159 a 2.276,2.276 0 0 0 -1.061,-1.987 z"
         fill="#f47b56"
         id="path85" />
      <path
         d="m 160.209,70.232 c 1.679,2.347 4.631,3.003 6.587,1.473 1.955,-1.53 2.18,-4.676 0.501,-7.017 -1.679,-2.34 -4.631,-3.003 -6.587,-1.472 -1.955,1.53 -2.18,4.669 -0.501,7.016 z"
         fill="#ffffff"
         id="path87" />
      <path
         d="M 155.616,58.965 136.51,47.473 a 0.727,0.727 0 0 0 -0.733,1.248 l 19.092,11.492 a 0.727,0.727 0 0 0 0.733,-1.248 h 0.013 z m -0.791,4.701 -26.31,-15.865 a 0.727,0.727 0 0 0 -0.733,1.248 l 26.316,15.839 a 0.727,0.727 0 0 0 0.733,-1.248 z"
         fill="#f2f2f2"
         id="path89" />
      <path
         d="M 159.668,63.782 112.872,35.254 a 1.621,1.621 0 0 0 -2.432,1.46 v 16.251 a 1.704,1.704 0 0 0 0.817,1.466 l 46.803,27.93 a 1.615,1.615 0 0 0 2.419,-1.44 l 0.244,-15.159 c 0.021,-0.8 -0.38,-1.551 -1.055,-1.98 z"
         fill="#68e1fd"
         id="path91" />
      <path
         d="M 159.668,63.782 112.872,35.254 a 1.621,1.621 0 0 0 -2.432,1.46 v 16.251 a 1.704,1.704 0 0 0 0.817,1.466 l 46.803,27.93 a 1.615,1.615 0 0 0 2.419,-1.44 l 0.244,-15.159 c 0.021,-0.8 -0.38,-1.551 -1.055,-1.98 z"
         fill="#68e1fd"
         id="path93" />
      <path
         d="m 148.463,72.148 c 1.679,2.348 4.631,3.004 6.587,1.473 1.955,-1.53 2.18,-4.675 0.501,-7.016 -1.678,-2.34 -4.631,-3.003 -6.586,-1.473 -1.956,1.53 -2.162,4.67 -0.502,7.016 z"
         fill="#ffffff"
         id="path95" />
      <path
         d="M 143.87,60.881 124.772,49.39 a 0.727,0.727 0 0 0 -0.734,1.248 L 143.13,62.13 a 0.727,0.727 0 0 0 0.734,-1.248 h 0.006 z m -0.791,4.676 -26.316,-15.84 a 0.727,0.727 0 0 0 -0.733,1.248 l 26.315,15.84 a 0.727,0.727 0 0 0 0.734,-1.248 z"
         fill="#f2f2f2"
         id="path97" />
      <path
         d="m 98.25,62.187 a 22.765,22.765 0 0 0 -6.632,9.717 c -2.328,6.43 3.493,16.939 3.493,16.939 l 9.057,-7.17"
         fill="#ff8f6f"
         id="path99" />
      <path
         d="m 97.273,147.21 -2.458,-1.357 0.644,-3.511 c 0,0 3.66,0.347 3.981,1.646"
         fill="#003b94"
         id="path101" />
      <path
         d="m 98.173,147.158 c 0.553,-0.34 1.132,-0.643 1.705,-0.945 1.421,-0.778 3.473,-1.582 4.348,-3.042 a 1.697,1.697 0 0 0 -0.116,-1.929 c -1.286,-1.556 -4.104,1.003 -5.544,-0.72 -0.283,-0.341 -0.419,-5.75 -0.419,-5.75 l -5.48,1.48 c 0,0 -0.926,10.868 -0.823,11.537 0.102,0.668 1.987,1.286 1.987,1.286 a 4.857,4.857 0 0 0 1.583,-0.643 c 0.572,-0.418 0.051,-5.518 0.784,-4.804 0.734,0.714 1.055,3.505 1.055,3.505 0.305,0.046 0.614,0.054 0.92,0.025 z"
         fill="#f47b56"
         id="path103" />
      <path
         d="m 107.738,152.464 -2.457,-1.338 0.643,-3.511 c 0,0 3.66,0.347 3.982,1.646"
         fill="#003b94"
         id="path105" />
      <path
         d="m 108.665,152.412 c 0.553,-0.34 1.132,-0.643 1.704,-0.945 1.422,-0.778 3.474,-1.582 4.349,-3.042 a 1.697,1.697 0 0 0 -0.116,-1.929 c -1.287,-1.556 -4.104,1.003 -5.545,-0.72 -0.283,-0.341 -0.418,-5.75 -0.418,-5.75 l -5.48,1.48 c 0,0 -0.933,10.906 -0.83,11.55 0.102,0.643 1.987,1.286 1.987,1.286 a 4.857,4.857 0 0 0 1.583,-0.643 c 0.572,-0.418 0.051,-5.518 0.784,-4.804 0.734,0.714 1.055,3.505 1.055,3.505 0.307,0.042 0.619,0.046 0.927,0.012 z"
         fill="#f47b56"
         id="path107" />
      <path
         d="m 89.882,117.133 -1.615,21.588 c 0,0 2.573,3.55 11.2,1.576 l 0.083,-14.553 m 0.296,-4.334 c -0.187,1.858 0,22.36 0,22.36 0,0 2.386,4.462 12.775,0 l -0.148,-17.422"
         fill="#3e2928"
         id="path109" />
      <path
         d="m 89.078,124.264 c 0.707,0.49 0.952,-2.025 1.691,-1.594 a 42.094,42.094 0 0 0 8.517,3.755 h 0.064 a 0.586,0.586 0 0 1 0.792,0.29 c 1.834,0.547 3.7,0.976 5.59,1.286 2.424,0.386 4.431,-1.409 6.92,-1.53 0,-9.531 0.046,-36.657 -4.013,-42.445 l -12.01,-4.038 c -0.058,0.99 -5.828,7.678 -5.686,15.833 0.16,9.19 -1.036,17.858 -1.242,20.733 -0.032,0.489 -0.598,7.19 -0.623,7.71 z"
         fill="#3e2928"
         id="path111" />
      <path
         d="m 109.745,73.068 -1.106,10.933 c 0,0 -8.96,0.36 -12.82,-2.303 v -9.273"
         fill="#ff8f6f"
         id="path113" />
      <path
         d="m 121.137,65.872 -0.913,1.247 A 30.002,30.002 0 0 0 121.51,64 c 0.258,-0.726 -0.907,-1.016 -1.164,-0.289 l -0.135,0.373 c 0.112,-0.386 0.217,-0.774 0.315,-1.164 a 0.6,0.6 0 1 0 -1.164,-0.29 31.17,31.17 0 0 1 -0.907,2.985 21.3,21.3 0 0 0 0.425,-2.637 c 0.077,-0.765 -1.126,-0.733 -1.197,0 -0.1,1.01 -0.28,2.01 -0.54,2.99 a 5.57,5.57 0 0 0 -0.097,-1.029 0.604,0.604 0 0 0 -0.25,-0.43 4.653,4.653 0 0 0 -0.116,-0.4 0.605,0.605 0 0 0 -1.178,0.18 l -0.077,4.502 c -0.218,0.467 -0.501,0.9 -0.842,1.287 0.578,0.4 1.137,0.83 1.672,1.286 0.478,0.403 0.933,0.833 1.364,1.286 0.386,-0.48 0.757,-0.969 1.113,-1.466 a 0.643,0.643 0 0 0 0.115,-0.129 128.076,128.076 0 0 1 3.32,-4.682 c 0.476,-0.527 -0.573,-1.112 -1.03,-0.501 z"
         fill="#ffb5a9"
         id="path115" />
      <path
         d="m 104.059,63.1 c 0,0 4.233,1.138 5.95,3.859 a 48.38,48.38 0 0 1 2.837,5.845 l 3.126,-4.855 c 0,0 3.795,1.164 5.3,3.029 0,0 -4.502,9.84 -8.426,10.682 -3.924,0.842 -8.092,-5.775 -8.092,-5.775 0,0 -0.862,2.765 -0.695,-0.187"
         fill="#ff8f6f"
         id="path117" />
      <path
         d="m 106.748,73.615 a 8.572,8.572 0 0 1 -2.683,-3.82 c -0.508,-1.73 0.129,-3.248 0.72,-4.856 a 15.643,15.643 0 0 0 1.107,-4.997 c 0.052,-1.684 -0.141,-3.37 -0.257,-5.048 a 0.489,0.489 0 0 1 0,-0.218 c -0.566,-1.898 -1.724,-3.505 -4.008,-3.698 -5.911,-0.502 -6.246,6.045 -6.2,8.707 0.044,2.663 0.328,4.463 -1.634,5.576 -1.962,1.112 -3.378,4.032 -1.506,6.392 1.872,2.36 0.193,1.499 -1.055,3.595 -1.247,2.097 -0.926,4.714 1.634,5.66 2.56,0.945 14.46,-0.83 15.554,-1.93 a 2.27,2.27 0 0 0 0.56,-1.608 6.238,6.238 0 0 0 -2.232,-3.755 z"
         fill="#007f68"
         id="path119" />
      <path
         d="m 112.563,19.62 a 9.42,9.42 0 0 1 1.672,4.888 3.215,3.215 0 0 1 -0.547,2.283 1.319,1.319 0 0 1 -1.595,0.277 2.464,2.464 0 0 1 -0.862,-0.58 3.003,3.003 0 0 1 -0.553,-0.7 l -0.154,-0.302 c -0.042,0.079 -0.094,0.152 -0.155,0.218 -0.153,0.12 -0.335,0.197 -0.527,0.225 -0.322,0.06 -0.654,0.02 -0.952,-0.115 a 3.57,3.57 0 0 1 -1.686,-1.512 4.854,4.854 0 0 1 -0.746,-2.437 c -0.095,-0.7 0.124,-1.406 0.598,-1.93 a 1.377,1.377 0 0 1 1.564,-0.244 c 0.258,0.103 0.495,0.251 0.7,0.438 0.176,0.149 0.332,0.32 0.464,0.508 l 0.116,0.206 V 20.27 l 1.286,0.502 0.129,3.614 c 0.009,0.259 0.089,0.51 0.231,0.727 0.121,0.209 0.306,0.373 0.528,0.47 0.622,0.244 0.909,-0.292 0.862,-1.609 a 6.957,6.957 0 0 0 -1.242,-3.633 6.091,6.091 0 0 0 -2.85,-2.43 2.4,2.4 0 0 0 -2.675,0.34 3.633,3.633 0 0 0 -1.036,2.971 7.664,7.664 0 0 0 1.287,3.859 5.93,5.93 0 0 0 2.746,2.572 c 0.408,0.17 0.845,0.255 1.287,0.25 0.287,0.02 0.575,-0.033 0.836,-0.154 l 0.257,-0.141 0.779,1.447 -0.129,0.09 c -0.122,0.068 -0.249,0.129 -0.38,0.18 -0.205,0.089 -0.421,0.15 -0.643,0.18 a 3.217,3.217 0 0 1 -0.855,0 4.31,4.31 0 0 1 -1.087,-0.277 7.076,7.076 0 0 1 -2.573,-1.89 11.209,11.209 0 0 1 -1.994,-3.113 9.529,9.529 0 0 1 -0.824,-3.453 5.542,5.542 0 0 1 0.592,-2.9 3.267,3.267 0 0 1 1.827,-1.608 3.52,3.52 0 0 1 2.534,0.128 8.175,8.175 0 0 1 3.77,3.229 z m -2.837,4.573 c 0.211,-0.27 0.306,-0.612 0.264,-0.952 a 2.456,2.456 0 0 0 -0.341,-1.19 1.634,1.634 0 0 0 -0.779,-0.707 0.701,0.701 0 0 0 -0.79,0.103 1.177,1.177 0 0 0 -0.284,0.933 c 0.015,0.424 0.141,0.836 0.367,1.196 0.185,0.326 0.472,0.584 0.817,0.733 0.247,0.127 0.548,0.08 0.746,-0.116 m 78.786,65.062 a 9.388,9.388 0 0 1 1.672,4.887 3.215,3.215 0 0 1 -0.546,2.283 1.325,1.325 0 0 1 -1.596,0.277 2.534,2.534 0 0 1 -0.862,-0.58 3.113,3.113 0 0 1 -0.553,-0.7 l -0.154,-0.302 a 1.248,1.248 0 0 1 -0.155,0.218 c -0.152,0.12 -0.334,0.199 -0.527,0.225 -0.319,0.064 -0.65,0.026 -0.946,-0.109 a 3.57,3.57 0 0 1 -1.685,-1.518 4.835,4.835 0 0 1 -0.753,-2.443 c -0.099,-0.7 0.12,-1.408 0.599,-1.93 a 1.37,1.37 0 0 1 1.556,-0.244 c 0.258,0.102 0.496,0.25 0.701,0.437 0.176,0.152 0.331,0.325 0.464,0.515 l 0.122,0.205 v -0.572 l 1.286,0.495 0.129,3.614 c 0.011,0.259 0.091,0.51 0.231,0.727 0.121,0.21 0.306,0.374 0.528,0.47 0.643,0.244 0.907,-0.29 0.868,-1.608 a 6.99,6.99 0 0 0 -1.241,-3.64 6.104,6.104 0 0 0 -2.843,-2.424 2.406,2.406 0 0 0 -2.676,0.334 3.633,3.633 0 0 0 -1.01,2.99 7.639,7.639 0 0 0 1.286,3.859 5.956,5.956 0 0 0 2.78,2.489 c 0.407,0.17 0.844,0.257 1.286,0.257 0.287,0.017 0.574,-0.036 0.836,-0.155 l 0.257,-0.141 0.779,1.447 -0.13,0.09 c -0.121,0.069 -0.248,0.129 -0.379,0.18 a 2.83,2.83 0 0 1 -0.643,0.18 3.281,3.281 0 0 1 -0.862,0 4.298,4.298 0 0 1 -1.08,-0.283 7.076,7.076 0 0 1 -2.573,-1.884 11.234,11.234 0 0 1 -1.995,-3.12 9.51,9.51 0 0 1 -0.823,-3.452 5.51,5.51 0 0 1 0.592,-2.894 3.293,3.293 0 0 1 1.827,-1.615 3.564,3.564 0 0 1 2.54,0.13 8.188,8.188 0 0 1 3.693,3.305 z m -2.837,4.572 c 0.213,-0.269 0.31,-0.611 0.27,-0.952 a 2.437,2.437 0 0 0 -0.347,-1.19 1.608,1.608 0 0 0 -0.772,-0.707 0.701,0.701 0 0 0 -0.791,0.097 1.164,1.164 0 0 0 -0.29,0.932 c 0.015,0.422 0.142,0.833 0.367,1.19 0.185,0.328 0.472,0.588 0.817,0.74 a 0.643,0.643 0 0 0 0.746,-0.11"
         fill="#f47b56"
         id="path121" />
      <path
         d="M 60.324,116.676 38.55,104.29 16.782,116.702 c 0,0 12.113,7.562 22.951,13.916 6.883,-4.862 13,-10.424 20.591,-13.942 z"
         fill="url(#e)"
         opacity="0.25"
         style="mix-blend-mode:multiply;fill:url(#e)"
         id="path123" />
    </g>
    <g
       transform="translate(50,68)"
       id="g131">
      <use
         fill="#000000"
         filter="url(#f)"
         xlink:href="#g"
         id="use127"
         x="0"
         y="0"
         width="100%"
         height="100%" />
      <use
         fill="#ff9271"
         xlink:href="#g"
         id="use129"
         x="0"
         y="0"
         width="100%"
         height="100%" />
    </g>
    <path
       fill="#df5c34"
       fill-rule="nonzero"
       d="m 70.984,93.896 v 26.935 L 94.678,106.818 V 79.883 Z"
       id="path133" />
    <path
       fill="#f47b56"
       fill-rule="nonzero"
       d="M 50,81.878 74.347,68 94.677,79.883 70.984,93.896 Z"
       id="path135" />
    <path
       d="m 71.541,74.182 a 12.971,12.971 0 0 1 7.104,1.565 c 1.243,0.731 1.922,1.494 2.018,2.29 0.096,0.795 -0.314,1.487 -1.281,2.07 a 4.557,4.557 0 0 1 -1.493,0.59 c -0.434,0.103 -0.88,0.149 -1.326,0.135 l -0.487,-0.038 c 0.046,0.109 0.076,0.223 0.09,0.34 A 1.566,1.566 0 0 1 75.91,81.91 c -0.254,0.43 -0.616,0.786 -1.05,1.032 a 6.316,6.316 0 0 1 -3.35,0.885 6.623,6.623 0 0 1 -3.479,-0.878 c -0.999,-0.59 -1.511,-1.283 -1.55,-2.078 a 2.245,2.245 0 0 1 1.281,-2.007 4.244,4.244 0 0 1 1.179,-0.507 4.588,4.588 0 0 1 1.018,-0.173 h 0.353 l -0.641,-0.385 1.8,-1.122 4.17,2.456 a 2.188,2.188 0 0 0 2.075,0 c 0.884,-0.551 0.568,-1.276 -0.948,-2.174 a 9.63,9.63 0 0 0 -5.278,-1.174 10.835,10.835 0 0 0 -5.509,1.584 c -1.511,0.945 -2.26,2.072 -2.248,3.38 0,1.283 0.8,2.424 2.357,3.341 1.7,0.95 3.629,1.41 5.573,1.328 a 10.463,10.463 0 0 0 5.509,-1.462 6.177,6.177 0 0 0 1.53,-1.283 c 0.293,-0.31 0.512,-0.683 0.641,-1.09 l 0.09,-0.404 2.376,0.134 c 0.004,0.073 0.004,0.146 0,0.219 -0.043,0.196 -0.101,0.389 -0.173,0.577 -0.103,0.3 -0.24,0.59 -0.41,0.859 -0.244,0.364 -0.527,0.7 -0.845,1 -0.42,0.405 -0.88,0.762 -1.377,1.065 a 12.801,12.801 0 0 1 -4.663,1.68 17.588,17.588 0 0 1 -5.439,0.096 12.448,12.448 0 0 1 -4.67,-1.526 6.064,6.064 0 0 1 -2.651,-2.783 4.096,4.096 0 0 1 0,-3.296 6.346,6.346 0 0 1 2.633,-2.88 14.483,14.483 0 0 1 7.327,-2.142 z m 2.332,6.631 a 1.372,1.372 0 0 0 -0.8,-1 3.29,3.29 0 0 0 -1.666,-0.455 2.81,2.81 0 0 0 -1.55,0.397 c -0.384,0.187 -0.631,0.573 -0.64,1 0.058,0.445 0.345,0.827 0.755,1.007 a 3.27,3.27 0 0 0 1.697,0.43 3.046,3.046 0 0 0 1.627,-0.423 c 0.373,-0.17 0.61,-0.546 0.603,-0.956"
       fill="#3e2928"
       fill-rule="nonzero"
       id="path137" />
  </g>
</svg>
